<svg class="card-icon" width="29" height="30" viewBox="0 0 29 30" fill="none" xmlns="http://www.w3.org/2000/svg"><g clip-path="url(#clip0_2359_1602)"><path d="M13.7764 3.86719C13.7764 2.14717 12.3792 0.75 10.6592 0.75C9.05049 0.75 7.72568 1.96904 7.55869 3.52764C6.0168 3.91729 4.87012 5.32002 4.87012 6.98438C4.87012 7.31836 4.91465 7.64678 5.00371 7.95293C3.40059 8.30361 2.19824 9.72861 2.19824 11.4375C2.19824 12.2725 2.48213 13.0406 2.96641 13.6474C1.45791 14.3599 0.416992 15.8962 0.416992 17.6719C0.416992 19.5756 1.6082 21.201 3.28926 21.8355C3.16123 22.2029 3.08887 22.6037 3.08887 23.0156C3.08887 24.9806 4.68643 26.5781 6.65137 26.5781C6.96309 26.5781 7.26924 26.5392 7.55869 26.4612C7.72012 28.031 9.05049 29.25 10.6592 29.25C12.3792 29.25 13.7764 27.8528 13.7764 26.1328V15.8906H11.1045C10.6146 15.8906 10.2139 16.2914 10.2139 16.7812V18.7128C11.2492 19.0802 11.9951 20.071 11.9951 21.2344C11.9951 22.7095 10.7983 23.9062 9.32324 23.9062C7.84814 23.9062 6.65137 22.7095 6.65137 21.2344C6.65137 20.071 7.39727 19.0802 8.43262 18.7128V16.7812C8.43262 15.3062 9.62939 14.1094 11.1045 14.1094H13.7764V9.65625H11.8448C11.4774 10.6916 10.4866 11.4375 9.32324 11.4375C7.84814 11.4375 6.65137 10.2407 6.65137 8.76562C6.65137 7.29053 7.84814 6.09375 9.32324 6.09375C10.4866 6.09375 11.4774 6.83965 11.8448 7.875H13.7764V3.86719ZM15.5576 9.65625V20.3438H17.4892C17.8565 19.3084 18.8474 18.5625 20.0107 18.5625C21.4858 18.5625 22.6826 19.7593 22.6826 21.2344C22.6826 22.7095 21.4858 23.9062 20.0107 23.9062C18.8474 23.9062 17.8565 23.1604 17.4892 22.125H15.5576V26.1328C15.5576 27.8528 16.9548 29.25 18.6748 29.25C20.2835 29.25 21.6083 28.031 21.7753 26.4612C22.0647 26.5392 22.3709 26.5781 22.6826 26.5781C24.6476 26.5781 26.2451 24.9806 26.2451 23.0156C26.2451 22.6037 26.1728 22.2029 26.0447 21.8355C27.7258 21.201 28.917 19.5756 28.917 17.6719C28.917 15.8962 27.8761 14.3599 26.3676 13.6474C26.8519 13.0406 27.1357 12.2725 27.1357 11.4375C27.1357 9.72861 25.9334 8.30361 24.3303 7.95293C24.4193 7.64678 24.4639 7.31836 24.4639 6.98438C24.4639 5.32002 23.3172 3.91729 21.7753 3.52764C21.6027 1.96904 20.2835 0.75 18.6748 0.75C16.9548 0.75 15.5576 2.14717 15.5576 3.86719V7.875H18.2295C19.7046 7.875 20.9014 9.07178 20.9014 10.5469V10.6972C21.9367 11.0646 22.6826 12.0554 22.6826 13.2188C22.6826 14.6938 21.4858 15.8906 20.0107 15.8906C18.5356 15.8906 17.3389 14.6938 17.3389 13.2188C17.3389 12.0554 18.0848 11.0646 19.1201 10.6972V10.5469C19.1201 10.057 18.7193 9.65625 18.2295 9.65625H15.5576ZM8.43262 8.76562C8.43262 9.00183 8.52645 9.22837 8.69348 9.39539C8.8605 9.56242 9.08703 9.65625 9.32324 9.65625C9.55945 9.65625 9.78598 9.56242 9.95301 9.39539C10.12 9.22837 10.2139 9.00183 10.2139 8.76562C10.2139 8.52942 10.12 8.30288 9.95301 8.13586C9.78598 7.96883 9.55945 7.875 9.32324 7.875C9.08703 7.875 8.8605 7.96883 8.69348 8.13586C8.52645 8.30288 8.43262 8.52942 8.43262 8.76562ZM20.0107 12.3281C19.7745 12.3281 19.548 12.422 19.381 12.589C19.2139 12.756 19.1201 12.9825 19.1201 13.2188C19.1201 13.455 19.2139 13.6815 19.381 13.8485C19.548 14.0155 19.7745 14.1094 20.0107 14.1094C20.247 14.1094 20.4735 14.0155 20.6405 13.8485C20.8075 13.6815 20.9014 13.455 20.9014 13.2188C20.9014 12.9825 20.8075 12.756 20.6405 12.589C20.4735 12.422 20.247 12.3281 20.0107 12.3281ZM8.43262 21.2344C8.43262 21.4706 8.52645 21.6971 8.69348 21.8641C8.8605 22.0312 9.08703 22.125 9.32324 22.125C9.55945 22.125 9.78598 22.0312 9.95301 21.8641C10.12 21.6971 10.2139 21.4706 10.2139 21.2344C10.2139 20.9982 10.12 20.7716 9.95301 20.6046C9.78598 20.4376 9.55945 20.3438 9.32324 20.3438C9.08703 20.3438 8.8605 20.4376 8.69348 20.6046C8.52645 20.7716 8.43262 20.9982 8.43262 21.2344ZM19.1201 21.2344C19.1201 21.4706 19.2139 21.6971 19.381 21.8641C19.548 22.0312 19.7745 22.125 20.0107 22.125C20.247 22.125 20.4735 22.0312 20.6405 21.8641C20.8075 21.6971 20.9014 21.4706 20.9014 21.2344C20.9014 20.9982 20.8075 20.7716 20.6405 20.6046C20.4735 20.4376 20.247 20.3438 20.0107 20.3438C19.7745 20.3438 19.548 20.4376 19.381 20.6046C19.2139 20.7716 19.1201 20.9982 19.1201 21.2344Z" fill="url(#paint0_linear_2359_1602)"></path></g><defs><linearGradient id="paint0_linear_2359_1602" x1="-2.63658" y1="32.3672" x2="30.9362" y2="29.7225" gradientUnits="userSpaceOnUse"><stop offset="0.149178" stop-color="#EE028B"></stop><stop offset="1" stop-color="#AE29FF"></stop></linearGradient><clipPath id="clip0_2359_1602"><rect width="28.5" height="28.5" fill="white" transform="translate(0.416992 0.75)"></rect></clipPath></defs></svg>