<svg class="card-icon" width="33" height="32" viewBox="0 0 33 32" fill="none" xmlns="http://www.w3.org/2000/svg"><path fill-rule="evenodd" clip-rule="evenodd" d="M0 3.45701C0 1.89217 1.27227 0.619904 2.83711 0.619904H9.92988V6.29412C9.92988 7.07876 10.5638 7.71267 11.3484 7.71267H17.0226V12.3944C14.0492 14.4079 12.095 17.8128 12.095 21.6742C12.095 22.2322 12.1358 22.7807 12.2146 23.3168H2.83711C1.27227 23.3168 0 22.0445 0 20.4797V3.45701ZM4.97023 11.1737V11.9043C4.97023 12.3084 4.64374 12.6349 4.23963 12.6349C3.83551 12.6349 3.50902 12.3084 3.50902 11.9043V10.8083C3.50902 10.2033 3.9999 9.71243 4.60493 9.71243H12.6416C13.2467 9.71243 13.7375 10.2033 13.7375 10.8083V11.9043C13.7375 12.3084 13.411 12.6349 13.0069 12.6349C12.6028 12.6349 12.2763 12.3084 12.2763 11.9043V11.1737H9.35389V18.4797H10.4498C10.8539 18.4797 11.1804 18.8062 11.1804 19.2103C11.1804 19.6145 10.8539 19.941 10.4498 19.941H6.79676C6.39264 19.941 6.06615 19.6145 6.06615 19.2103C6.06615 18.8062 6.39264 18.4797 6.79676 18.4797H7.89267V11.1737H4.97023Z" fill="url(#paint0_linear_2359_1589)"></path><path d="M17.0226 14.2663V20.4797C17.0226 22.0445 15.7504 23.3168 14.1855 23.3168H13.7266C13.6356 22.7828 13.5882 22.2341 13.5882 21.6742C13.5882 18.7047 14.9218 16.0467 17.0226 14.2663Z" fill="url(#paint1_linear_2359_1589)"></path><path d="M17.0226 6.29412H11.3484V0.619904L17.0226 6.29412Z" fill="url(#paint2_linear_2359_1589)"></path><path fill-rule="evenodd" clip-rule="evenodd" d="M23.2943 31.3801C28.6547 31.3801 33.0002 27.0346 33.0002 21.6742C33.0002 16.3138 28.6547 11.9683 23.2943 11.9683C17.9339 11.9683 13.5884 16.3138 13.5884 21.6742C13.5884 27.0346 17.9339 31.3801 23.2943 31.3801ZM27.885 21.9111C27.885 18.9807 26.5368 16.3655 24.4283 14.6501V14.6469C24.0937 14.3772 23.5999 14.4259 23.3302 14.7606C23.0606 15.0952 23.1093 15.5857 23.444 15.8586C25.2048 17.2913 26.3256 19.468 26.3256 21.9111C26.3256 24.3542 25.2048 26.5308 23.444 27.9603C23.1093 28.2332 23.0574 28.7237 23.3302 29.0584C23.6031 29.393 24.0937 29.445 24.4283 29.1721C26.5368 27.46 27.885 24.8415 27.885 21.9111ZM24.7662 21.9111C24.7662 19.9586 23.8663 18.214 22.4628 17.0704V17.0672C22.1282 16.7975 21.6344 16.8463 21.3647 17.1809C21.0951 17.5155 21.1438 18.0061 21.4785 18.279C22.5343 19.1399 23.2068 20.4459 23.2068 21.9111C23.2068 23.3763 22.5343 24.6823 21.4785 25.54C21.1438 25.8129 21.0919 26.3034 21.3647 26.638C21.6376 26.9727 22.1282 27.0246 22.4628 26.7517C23.8663 25.6082 24.7662 23.8636 24.7662 21.9111ZM21.6474 21.9111C21.6474 20.9332 21.1958 20.0625 20.4973 19.4908V19.4875C20.1627 19.2179 19.6689 19.2666 19.3992 19.6012C19.1296 19.9358 19.1783 20.4264 19.513 20.6993C19.8638 20.9884 20.088 21.4238 20.088 21.9111C20.088 22.3984 19.8638 22.8337 19.513 23.1196C19.1783 23.3925 19.1264 23.8831 19.3992 24.2177C19.6721 24.5523 20.1627 24.6043 20.4973 24.3314C21.1958 23.7596 21.6474 22.889 21.6474 21.9111Z" fill="url(#paint3_linear_2359_1589)"></path><defs><linearGradient id="paint0_linear_2359_1589" x1="-1.82385" y1="25.7992" x2="18.2829" y2="24.6113" gradientUnits="userSpaceOnUse"><stop offset="0.149178" stop-color="#EE028B"></stop><stop offset="1" stop-color="#AE29FF"></stop></linearGradient><linearGradient id="paint1_linear_2359_1589" x1="-1.82385" y1="25.7992" x2="18.2829" y2="24.6113" gradientUnits="userSpaceOnUse"><stop offset="0.149178" stop-color="#EE028B"></stop><stop offset="1" stop-color="#AE29FF"></stop></linearGradient><linearGradient id="paint2_linear_2359_1589" x1="-1.82385" y1="25.7992" x2="18.2829" y2="24.6113" gradientUnits="userSpaceOnUse"><stop offset="0.149178" stop-color="#EE028B"></stop><stop offset="1" stop-color="#AE29FF"></stop></linearGradient><linearGradient id="paint3_linear_2359_1589" x1="11.5085" y1="33.5032" x2="34.3755" y2="31.7019" gradientUnits="userSpaceOnUse"><stop offset="0.149178" stop-color="#EE028B"></stop><stop offset="1" stop-color="#AE29FF"></stop></linearGradient></defs></svg>