<svg width="20" height="17" viewBox="0 0 20 17" fill="none" xmlns="http://www.w3.org/2000/svg">
<g clip-path="url(#clip0_59_3011)">
<path opacity="0.4" d="M7.03773 15.225C6.8846 15.7563 7.19398 16.3094 7.72523 16.4625C7.81585 16.4875 7.9096 16.5 8.00023 16.5C8.4346 16.5 8.8346 16.2125 8.9596 15.775L12.9596 1.775C12.9846 1.68437 12.9971 1.59062 12.9971 1.5C12.9971 1.06562 12.7096 0.665625 12.2721 0.5375C11.7409 0.384375 11.1877 0.69375 11.0346 1.225L7.0346 15.225H7.03773Z" fill="#BBBBBF"/>
<path d="M14.7939 4.29375C14.4033 4.68438 14.4033 5.31875 14.7939 5.70938L17.5846 8.5L14.7908 11.2938C14.4002 11.6844 14.4002 12.3188 14.7908 12.7094C15.1814 13.1 15.8158 13.1 16.2064 12.7094L19.7064 9.20938C20.0971 8.81875 20.0971 8.18438 19.7064 7.79375L16.2064 4.29375C15.8158 3.90313 15.1814 3.90313 14.7908 4.29375H14.7939ZM5.20957 4.29375C4.81895 3.90313 4.18457 3.90313 3.79395 4.29375L0.293945 7.79375C-0.0966797 8.18438 -0.0966797 8.81875 0.293945 9.20938L3.79395 12.7094C4.18457 13.1 4.81895 13.1 5.20957 12.7094C5.6002 12.3188 5.6002 11.6844 5.20957 11.2938L2.41582 8.5L5.20957 5.70625C5.6002 5.31563 5.6002 4.68125 5.20957 4.29063V4.29375Z" fill="#BBBBBF"/>
</g>
<defs>
<clipPath id="clip0_59_3011">
<rect width="20" height="16" fill="white" transform="translate(0 0.5)"/>
</clipPath>
</defs>
</svg>
