<svg width="20" height="17" viewBox="0 0 20 17" fill="none" xmlns="http://www.w3.org/2000/svg">
<g clip-path="url(#clip0_59_3014)">
<path opacity="0.4" d="M0 9.83438C0 10.2 0.3 10.5 0.665625 10.5H7.33125C7.3375 10.5 7.34375 10.5 7.35313 10.5C6.52187 9.76562 6 8.69375 6 7.5C6 7.2625 6.02187 7.03125 6.05937 6.80312C5.63437 6.60625 5.1625 6.5 4.66563 6.5H3.33125C1.49375 6.5 0 7.99375 0 9.83438ZM2 3C2 3.66304 2.26339 4.29893 2.73223 4.76777C3.20107 5.23661 3.83696 5.5 4.5 5.5C5.16304 5.5 5.79893 5.23661 6.26777 4.76777C6.73661 4.29893 7 3.66304 7 3C7 2.33696 6.73661 1.70107 6.26777 1.23223C5.79893 0.763392 5.16304 0.5 4.5 0.5C3.83696 0.5 3.20107 0.763392 2.73223 1.23223C2.26339 1.70107 2 2.33696 2 3ZM12.6469 10.5C12.6531 10.5 12.6594 10.5 12.6687 10.5H19.3344C19.7031 10.5 20 10.2 20 9.83438C20 7.99375 18.5063 6.5 16.6656 6.5H15.3313C14.8344 6.5 14.3625 6.60938 13.9375 6.80312C13.9781 7.02812 13.9969 7.2625 13.9969 7.5C13.9969 8.69375 13.4719 9.76562 12.6438 10.5H12.6469ZM13.5 3C13.5 3.66304 13.7634 4.29893 14.2322 4.76777C14.7011 5.23661 15.337 5.5 16 5.5C16.663 5.5 17.2989 5.23661 17.7678 4.76777C18.2366 4.29893 18.5 3.66304 18.5 3C18.5 2.33696 18.2366 1.70107 17.7678 1.23223C17.2989 0.763392 16.663 0.5 16 0.5C15.337 0.5 14.7011 0.763392 14.2322 1.23223C13.7634 1.70107 13.5 2.33696 13.5 3Z" fill="#BBBBBF"/>
<path d="M10 10.5C10.394 10.5 10.7841 10.4224 11.1481 10.2716C11.512 10.1209 11.8427 9.8999 12.1213 9.62132C12.3999 9.34274 12.6209 9.01203 12.7716 8.64805C12.9224 8.28407 13 7.89397 13 7.5C13 7.10603 12.9224 6.71593 12.7716 6.35195C12.6209 5.98797 12.3999 5.65726 12.1213 5.37868C11.8427 5.1001 11.512 4.87913 11.1481 4.72836C10.7841 4.5776 10.394 4.5 10 4.5C9.60603 4.5 9.21593 4.5776 8.85195 4.72836C8.48797 4.87913 8.15726 5.1001 7.87868 5.37868C7.6001 5.65726 7.37913 5.98797 7.22836 6.35195C7.0776 6.71593 7 7.10603 7 7.5C7 7.89397 7.0776 8.28407 7.22836 8.64805C7.37913 9.01203 7.6001 9.34274 7.87868 9.62132C8.15726 9.8999 8.48797 10.1209 8.85195 10.2716C9.21593 10.4224 9.60603 10.5 10 10.5ZM8.16562 11.5C5.86562 11.5 4 13.3656 4 15.6656C4 16.125 4.37187 16.5 4.83437 16.5H15.1687C15.6281 16.5 16.0031 16.1281 16.0031 15.6656C16 13.3656 14.1344 11.5 11.8344 11.5H8.16875H8.16562Z" fill="#BBBBBF"/>
</g>
<defs>
<clipPath id="clip0_59_3014">
<rect width="20" height="16" fill="white" transform="translate(0 0.5)"/>
</clipPath>
</defs>
</svg>
