<svg width="18" height="17" viewBox="0 0 18 17" fill="none" xmlns="http://www.w3.org/2000/svg">
<path opacity="0.4" d="M9 2.75C9.5 2.25 11.5 1.5 13.5 1.5C15.0781 1.5 16.5531 1.91562 17.4344 2.25312C17.7875 2.39062 18 2.74063 18 3.11875V14.6906C18 15.0625 17.6 15.3219 17.2469 15.2063C16.2625 14.8781 14.7031 14.5 13.5 14.5C11.9 14.5 9 15.5 9 15.5V2.75Z" fill="#BBBBBF"/>
<path d="M9 2.75V15.5C9 15.5 6.1 14.5 4.5 14.5C3.29688 14.5 1.7375 14.8781 0.753125 15.2063C0.4 15.3219 0 15.0625 0 14.6906V3.11875C0 2.74063 0.2125 2.39062 0.565625 2.25312C1.44688 1.91562 2.92188 1.5 4.5 1.5C6.5 1.5 8.5 2.25 9 2.75Z" fill="#BBBBBF"/>
</svg>
