<svg width="16" height="17" viewBox="0 0 16 17" fill="none" xmlns="http://www.w3.org/2000/svg">
<g clip-path="url(#clip0_51_1001)">
<path opacity="0.4" d="M0 13.25V15.75C0 16.1656 0.334375 16.5 0.75 16.5H3.25C3.66563 16.5 4 16.1656 4 15.75V14.5H5.25C5.66563 14.5 6 14.1656 6 13.75V12.5H7.25C7.45 12.5 7.64062 12.4219 7.78125 12.2813C8.12813 11.9344 8.475 11.5875 8.82187 11.2406C7.63437 10.0531 6.44687 8.86563 5.2625 7.68125C3.58125 9.35938 1.9 11.0375 0.21875 12.7188C0.078125 12.8594 0 13.05 0 13.25Z" fill="#BBBBBF"/>
<path d="M5.25938 7.67812L8.82187 11.2406C9.35 11.4094 9.91563 11.5 10.5 11.5C13.5375 11.5 16 9.0375 16 6C16 2.9625 13.5375 0.5 10.5 0.5C7.4625 0.5 5 2.9625 5 6C5 6.58437 5.09063 7.15 5.25938 7.67812ZM10.5 4.75C10.5 4.41848 10.6317 4.10054 10.8661 3.86612C11.1005 3.6317 11.4185 3.5 11.75 3.5C12.0815 3.5 12.3995 3.6317 12.6339 3.86612C12.8683 4.10054 13 4.41848 13 4.75C13 5.08152 12.8683 5.39946 12.6339 5.63388C12.3995 5.8683 12.0815 6 11.75 6C11.4185 6 11.1005 5.8683 10.8661 5.63388C10.6317 5.39946 10.5 5.08152 10.5 4.75Z" fill="#BBBBBF"/>
</g>
<defs>
<clipPath id="clip0_51_1001">
<rect width="16" height="16" fill="white" transform="translate(0 0.5)"/>
</clipPath>
</defs>
</svg>
