<svg width="16" height="17" viewBox="0 0 16 17" fill="none" xmlns="http://www.w3.org/2000/svg">
<g clip-path="url(#clip0_51_998)">
<path d="M6.40938 2.79063C6.32812 2.6125 6.15 2.5 5.95625 2.5C5.7625 2.5 5.58438 2.6125 5.50313 2.79063L3.85625 6.35625L0.290625 8C0.1125 8.08125 0 8.25938 0 8.45625C0 8.65313 0.1125 8.82812 0.290625 8.90938L3.85625 10.5562L5.5 14.1187C5.58125 14.2969 5.75938 14.4094 5.95312 14.4094C6.14687 14.4094 6.325 14.2969 6.40625 14.1187L8.05313 10.5531L11.6187 8.90625C11.7969 8.825 11.9094 8.64687 11.9094 8.45312C11.9094 8.25938 11.7969 8.08125 11.6187 8L8.05625 6.35625L6.40938 2.79063Z" fill="#BBBBBF"/>
<path opacity="0.6" d="M10.2344 3.1625L12 2.5L12.6625 0.734375C12.7156 0.59375 12.85 0.5 13 0.5C13.15 0.5 13.2844 0.59375 13.3375 0.734375L14 2.5L15.7656 3.1625C15.9062 3.21562 16 3.35 16 3.5C16 3.65 15.9062 3.78438 15.7656 3.8375L14 4.5L13.3375 6.26562C13.2844 6.40625 13.15 6.5 13 6.5C12.85 6.5 12.7156 6.40625 12.6625 6.26562L12 4.5L10.2344 3.8375C10.0938 3.78438 10 3.65 10 3.5C10 3.35 10.0938 3.21562 10.2344 3.1625ZM10.2344 13.1625L12 12.5L12.6625 10.7344C12.7156 10.5938 12.85 10.5 13 10.5C13.15 10.5 13.2844 10.5938 13.3375 10.7344L14 12.5L15.7656 13.1625C15.9062 13.2156 16 13.35 16 13.5C16 13.65 15.9062 13.7844 15.7656 13.8375L14 14.5L13.3375 16.2656C13.2844 16.4062 13.15 16.5 13 16.5C12.85 16.5 12.7156 16.4062 12.6625 16.2656L12 14.5L10.2344 13.8375C10.0938 13.7844 10 13.65 10 13.5C10 13.35 10.0938 13.2156 10.2344 13.1625Z" fill="#BBBBBF"/>
</g>
<defs>
<clipPath id="clip0_51_998">
<rect width="16" height="16" fill="white" transform="translate(0 0.5)"/>
</clipPath>
</defs>
</svg>
