<svg width="823" height="305" viewBox="0 0 823 305" fill="none" xmlns="http://www.w3.org/2000/svg"><g clip-path="url(#clip0_1724_4823)"><rect width="821.92" height="198.027" transform="translate(822.479 305.368) rotate(180)" fill="white"/><rect width="821.92" height="198.027" transform="translate(822.479 305.368) rotate(180)" fill="#1C1C20"/><ellipse cx="417.907" cy="402.518" rx="348.677" ry="183.921" transform="rotate(180 417.907 402.518)" fill="url(#paint0_linear_1724_4823)" fill-opacity="0.4"/><g opacity="0.8"><g style="mix-blend-mode:overlay"/><g style="mix-blend-mode:overlay"/><g style="mix-blend-mode:overlay"><ellipse cx="0.822057" cy="0.839025" rx="0.822057" ry="0.839025" transform="matrix(0.910888 0.497778 -0.787487 0.552695 125.87 183.347)" fill="white"/><ellipse cx="0.822057" cy="0.839025" rx="0.822057" ry="0.839025" transform="matrix(0.910888 0.497778 -0.787487 0.552695 121.947 219.479)" fill="white"/><ellipse cx="0.822057" cy="0.839025" rx="0.822057" ry="0.839025" transform="matrix(0.910888 0.497778 -0.787487 0.552695 96.8637 283.913)" fill="white"/><ellipse cx="0.822057" cy="0.839025" rx="0.822057" ry="0.839025" transform="matrix(0.910888 0.497778 -0.787487 0.552695 177.553 243.712)" fill="white"/><ellipse cx="0.822057" cy="0.839025" rx="0.822057" ry="0.839025" transform="matrix(0.910888 0.497778 -0.787487 0.552695 191.14 285.988)" fill="white"/><ellipse cx="0.822057" cy="0.839025" rx="0.822057" ry="0.839025" transform="matrix(0.910888 0.497778 -0.787487 0.552695 47.4936 255.283)" fill="white"/></g><g style="mix-blend-mode:overlay"><ellipse cx="0.822057" cy="0.839025" rx="0.822057" ry="0.839025" transform="matrix(0.910888 0.497778 -0.787487 0.552695 125.869 183.347)" fill="white"/><ellipse cx="0.822057" cy="0.839025" rx="0.822057" ry="0.839025" transform="matrix(0.910888 0.497778 -0.787487 0.552695 121.946 219.479)" fill="white"/><ellipse cx="0.822057" cy="0.839025" rx="0.822057" ry="0.839025" transform="matrix(0.910888 0.497778 -0.787487 0.552695 96.8626 283.913)" fill="white"/><ellipse cx="0.822057" cy="0.839025" rx="0.822057" ry="0.839025" transform="matrix(0.910888 0.497778 -0.787487 0.552695 177.551 243.712)" fill="white"/><ellipse cx="0.822057" cy="0.839025" rx="0.822057" ry="0.839025" transform="matrix(0.910888 0.497778 -0.787487 0.552695 191.139 285.987)" fill="white"/><ellipse cx="0.822057" cy="0.839025" rx="0.822057" ry="0.839025" transform="matrix(0.910888 0.497778 -0.787487 0.552695 47.492 255.283)" fill="white"/></g><g style="mix-blend-mode:overlay"><ellipse cx="0.621959" cy="0.996047" rx="0.621959" ry="0.996047" transform="matrix(-0.137405 -0.990515 0.998588 -0.0531301 543.501 270.753)" fill="white"/><ellipse cx="0.975483" cy="0.653725" rx="0.975483" ry="0.653725" transform="matrix(0.962228 -0.215839 0.520089 0.889279 610.288 278.715)" fill="white"/><ellipse cx="0.975483" cy="0.653725" rx="0.975483" ry="0.653725" transform="matrix(0.962228 -0.215839 0.520089 0.889279 659.598 298.179)" fill="white"/><ellipse cx="0.975483" cy="0.653725" rx="0.975483" ry="0.653725" transform="matrix(0.962228 -0.215839 0.520089 0.889279 720.605 279.586)" fill="white"/><ellipse cx="0.975483" cy="0.653725" rx="0.975483" ry="0.653725" transform="matrix(0.962228 -0.215839 0.520089 0.889279 787.019 292.482)" fill="white"/><ellipse cx="0.822057" cy="0.839025" rx="0.822057" ry="0.839025" transform="matrix(0.910888 0.497778 -0.787487 0.552695 651.633 141.491)" fill="white"/><ellipse cx="0.822057" cy="0.839025" rx="0.822057" ry="0.839025" transform="matrix(0.910888 0.497778 -0.787487 0.552695 647.71 177.623)" fill="white"/><ellipse cx="0.822057" cy="0.839025" rx="0.822057" ry="0.839025" transform="matrix(0.910888 0.497778 -0.787487 0.552695 622.627 242.057)" fill="white"/><ellipse cx="0.822057" cy="0.839025" rx="0.822057" ry="0.839025" transform="matrix(0.910888 0.497778 -0.787487 0.552695 703.316 201.856)" fill="white"/><ellipse cx="0.822057" cy="0.839025" rx="0.822057" ry="0.839025" transform="matrix(0.910888 0.497778 -0.787487 0.552695 716.903 244.131)" fill="white"/><ellipse cx="0.822057" cy="0.839025" rx="0.822057" ry="0.839025" transform="matrix(0.910888 0.497778 -0.787487 0.552695 573.257 213.427)" fill="white"/></g><g style="mix-blend-mode:overlay"><ellipse cx="0.621959" cy="0.996047" rx="0.621959" ry="0.996047" transform="matrix(-0.137405 -0.990515 0.998588 -0.0531301 543.501 270.753)" fill="white"/><ellipse cx="0.975483" cy="0.653725" rx="0.975483" ry="0.653725" transform="matrix(0.962228 -0.215839 0.520089 0.889279 610.288 278.715)" fill="white"/><ellipse cx="0.975483" cy="0.653725" rx="0.975483" ry="0.653725" transform="matrix(0.962228 -0.215839 0.520089 0.889279 659.598 298.179)" fill="white"/><ellipse cx="0.975483" cy="0.653725" rx="0.975483" ry="0.653725" transform="matrix(0.962228 -0.215839 0.520089 0.889279 720.605 279.586)" fill="white"/><ellipse cx="0.975483" cy="0.653725" rx="0.975483" ry="0.653725" transform="matrix(0.962228 -0.215839 0.520089 0.889279 787.019 292.482)" fill="white"/><ellipse cx="0.822057" cy="0.839025" rx="0.822057" ry="0.839025" transform="matrix(0.910888 0.497778 -0.787487 0.552695 651.633 141.491)" fill="white"/><ellipse cx="0.822057" cy="0.839025" rx="0.822057" ry="0.839025" transform="matrix(0.910888 0.497778 -0.787487 0.552695 647.71 177.623)" fill="white"/><ellipse cx="0.822057" cy="0.839025" rx="0.822057" ry="0.839025" transform="matrix(0.910888 0.497778 -0.787487 0.552695 622.627 242.057)" fill="white"/><ellipse cx="0.822057" cy="0.839025" rx="0.822057" ry="0.839025" transform="matrix(0.910888 0.497778 -0.787487 0.552695 703.316 201.856)" fill="white"/><ellipse cx="0.822057" cy="0.839025" rx="0.822057" ry="0.839025" transform="matrix(0.910888 0.497778 -0.787487 0.552695 716.903 244.131)" fill="white"/><ellipse cx="0.822057" cy="0.839025" rx="0.822057" ry="0.839025" transform="matrix(0.910888 0.497778 -0.787487 0.552695 573.257 213.427)" fill="white"/></g><g opacity="0.6"><g style="mix-blend-mode:overlay"><ellipse cx="0.621959" cy="0.996047" rx="0.621959" ry="0.996047" transform="matrix(-0.137405 -0.990515 0.998588 -0.0531301 227.984 199.713)" fill="white"/><ellipse cx="0.621959" cy="0.996047" rx="0.621959" ry="0.996047" transform="matrix(-0.137405 -0.990515 0.998588 -0.0531301 271.105 175.252)" fill="white"/><ellipse cx="0.621959" cy="0.996047" rx="0.621959" ry="0.996047" transform="matrix(-0.137405 -0.990515 0.998588 -0.0531301 361.083 139.367)" fill="white"/><ellipse cx="0.621959" cy="0.996047" rx="0.621959" ry="0.996047" transform="matrix(-0.137405 -0.990515 0.998588 -0.0531301 257.896 133.946)" fill="white"/><ellipse cx="0.621959" cy="0.996047" rx="0.621959" ry="0.996047" transform="matrix(-0.137405 -0.990515 0.998588 -0.0531301 364.88 181.187)" fill="white"/><ellipse cx="0.975483" cy="0.653725" rx="0.975483" ry="0.653725" transform="matrix(0.962228 -0.215839 0.520089 0.889279 411.295 124.98)" fill="white"/><ellipse cx="0.975483" cy="0.653725" rx="0.975483" ry="0.653725" transform="matrix(0.962228 -0.215839 0.520089 0.889279 490.554 169.517)" fill="white"/><ellipse cx="0.975483" cy="0.653725" rx="0.975483" ry="0.653725" transform="matrix(0.962228 -0.215839 0.520089 0.889279 472.302 106.388)" fill="white"/><ellipse cx="0.975483" cy="0.653725" rx="0.975483" ry="0.653725" transform="matrix(0.962228 -0.215839 0.520089 0.889279 538.715 119.283)" fill="white"/><ellipse cx="0.975483" cy="0.653725" rx="0.975483" ry="0.653725" transform="matrix(0.962228 -0.215839 0.520089 0.889279 426.31 182.613)" fill="white"/></g><g style="mix-blend-mode:overlay"><ellipse cx="0.621959" cy="0.996047" rx="0.621959" ry="0.996047" transform="matrix(-0.137405 -0.990515 0.998588 -0.0531301 227.984 199.713)" fill="white"/><ellipse cx="0.621959" cy="0.996047" rx="0.621959" ry="0.996047" transform="matrix(-0.137405 -0.990515 0.998588 -0.0531301 271.105 175.252)" fill="white"/><ellipse cx="0.621959" cy="0.996047" rx="0.621959" ry="0.996047" transform="matrix(-0.137405 -0.990515 0.998588 -0.0531301 361.083 139.367)" fill="white"/><ellipse cx="0.621959" cy="0.996047" rx="0.621959" ry="0.996047" transform="matrix(-0.137405 -0.990515 0.998588 -0.0531301 257.896 133.946)" fill="white"/><ellipse cx="0.621959" cy="0.996047" rx="0.621959" ry="0.996047" transform="matrix(-0.137405 -0.990515 0.998588 -0.0531301 364.88 181.187)" fill="white"/><ellipse cx="0.975483" cy="0.653725" rx="0.975483" ry="0.653725" transform="matrix(0.962228 -0.215839 0.520089 0.889279 411.295 124.98)" fill="white"/><ellipse cx="0.975483" cy="0.653725" rx="0.975483" ry="0.653725" transform="matrix(0.962228 -0.215839 0.520089 0.889279 490.554 169.517)" fill="white"/><ellipse cx="0.975483" cy="0.653725" rx="0.975483" ry="0.653725" transform="matrix(0.962228 -0.215839 0.520089 0.889279 472.302 106.388)" fill="white"/><ellipse cx="0.975483" cy="0.653725" rx="0.975483" ry="0.653725" transform="matrix(0.962228 -0.215839 0.520089 0.889279 538.715 119.283)" fill="white"/><ellipse cx="0.975483" cy="0.653725" rx="0.975483" ry="0.653725" transform="matrix(0.962228 -0.215839 0.520089 0.889279 426.31 182.613)" fill="white"/></g></g></g><g style="mix-blend-mode:overlay"><ellipse cx="0.830585" cy="0.830585" rx="0.830585" ry="0.830585" transform="matrix(-0.0280198 0.744402 -1.20199 -0.0173529 819.13 285.947)" fill="white"/><ellipse cx="0.830585" cy="0.830585" rx="0.830585" ry="0.830585" transform="matrix(-0.0280198 0.744402 -1.20199 -0.0173529 679.792 295.139)" fill="white"/></g><g style="mix-blend-mode:overlay"><ellipse cx="0.830585" cy="0.830585" rx="0.830585" ry="0.830585" transform="matrix(-0.0280198 0.744402 -1.20199 -0.0173529 819.13 285.947)" fill="white"/><ellipse cx="0.830585" cy="0.830585" rx="0.830585" ry="0.830585" transform="matrix(-0.0280198 0.744402 -1.20199 -0.0173529 679.792 295.139)" fill="white"/></g><g opacity="0.6"><g style="mix-blend-mode:overlay"><ellipse cx="0.830585" cy="0.830585" rx="0.830585" ry="0.830585" transform="matrix(1.04124 0.372302 -0.601158 0.644846 206.162 149.89)" fill="white"/><ellipse cx="0.830585" cy="0.830585" rx="0.830585" ry="0.830585" transform="matrix(1.04124 0.372302 -0.601158 0.644846 299.233 140.358)" fill="white"/><ellipse cx="0.830585" cy="0.830585" rx="0.830585" ry="0.830585" transform="matrix(1.04124 0.372302 -0.601158 0.644846 148.613 127.885)" fill="white"/></g><g style="mix-blend-mode:overlay"><ellipse cx="0.830585" cy="0.830585" rx="0.830585" ry="0.830585" transform="matrix(1.04124 0.372302 -0.601158 0.644846 206.162 149.89)" fill="white"/><ellipse cx="0.830585" cy="0.830585" rx="0.830585" ry="0.830585" transform="matrix(1.04124 0.372302 -0.601158 0.644846 299.233 140.358)" fill="white"/><ellipse cx="0.830585" cy="0.830585" rx="0.830585" ry="0.830585" transform="matrix(1.04124 0.372302 -0.601158 0.644846 148.613 127.885)" fill="white"/></g></g><ellipse opacity="0.5" cx="457" cy="283.5" rx="94" ry="17.5" fill="url(#paint1_radial_1724_4823)"/></g><path d="M493.561 289.914C492.252 289.914 490.937 289.518 489.797 288.688C473.993 277.207 469.933 252.981 469.769 251.956C469.209 248.466 471.582 245.184 475.075 244.625C478.568 244.065 481.848 246.435 482.414 249.912C482.446 250.114 485.832 269.989 497.331 278.345C500.189 280.426 500.825 284.425 498.741 287.28C497.489 289.002 495.538 289.914 493.555 289.914H493.561Z" fill="#616165"/><path d="M395.706 283.815C394.12 283.815 392.534 283.23 391.3 282.055C388.732 279.621 388.631 275.572 391.067 273.013C398.639 265.047 397.84 251.56 397.833 251.421C397.563 247.9 400.206 244.826 403.731 244.555C407.256 244.291 410.333 246.926 410.604 250.447C410.661 251.226 411.92 269.649 400.357 281.816C399.098 283.142 397.405 283.809 395.712 283.809L395.706 283.815Z" fill="#616165"/><path d="M441.118 299.345C437.581 299.345 434.717 296.485 434.711 292.951C434.692 280.206 434.094 271.416 433.704 265.6C433.15 257.382 432.917 253.98 435.724 251.113C438.198 248.586 442.257 248.535 444.788 251.006C446.764 252.937 447.23 255.829 446.16 258.206C446.135 259.444 446.317 262.129 446.493 264.739C446.896 270.718 447.507 279.76 447.532 292.932C447.532 296.466 444.674 299.339 441.131 299.345H441.118Z" fill="#616165"/><path opacity="0.4" d="M439.74 228.987C500.031 228.987 548.906 180.164 548.906 119.935C548.906 59.7066 500.031 10.8834 439.74 10.8834C379.448 10.8834 330.574 59.7066 330.574 119.935C330.574 180.164 379.448 228.987 439.74 228.987Z" fill="url(#paint2_linear_1724_4823)"/><path d="M504.456 96.9226C504.456 90.7859 524.812 86.8247 519.21 83.7061C514.011 66.1197 471.299 51.6833 449.055 51.6833C434.15 51.6833 418.51 55.3553 409.792 64.4912C409.792 64.4912 397.953 63.548 391.231 74.589C384.276 76.5508 378.944 81.5243 377.522 87.7615C371.964 90.0691 367.798 94.4012 366.444 99.6639C360.062 102.632 358.029 110.504 358.029 117.125V117.206C355.732 119.313 354.29 122.111 354.29 125.21C354.29 126.613 354.624 127.927 355.153 129.172C353.749 131.529 352.899 134.158 352.899 136.981C352.899 146.337 361.535 153.894 372.38 154.372C374.526 158.497 379.36 161.396 384.999 161.396C388.94 161.396 392.458 159.975 394.988 157.724C398.626 160.547 403.416 162.307 408.735 162.307C414.053 162.307 418.875 160.528 422.531 157.692C426.018 160 430.336 161.433 435.095 161.433C442.05 161.433 448.168 158.466 451.881 153.97C453.643 154.391 455.45 154.674 457.351 154.674C465.829 154.674 473.099 150.298 476.233 144.042C486.612 143.18 494.757 135.799 494.757 126.732C494.757 126.663 494.732 126.587 494.732 126.518C500.56 123.431 504.481 117.98 504.481 111.698C504.481 109.058 503.739 106.568 502.492 104.317C503.739 102.066 504.481 99.5822 504.481 96.9226H504.456Z" fill="url(#paint3_linear_1724_4823)"/><path d="M532.239 105.298C532.188 99.161 528.55 93.8166 523.093 90.7294C517.932 73.1807 499.792 60.2409 478.254 60.3603C463.828 60.4421 451 66.365 442.616 75.5511H442.591C434.629 75.6014 427.838 79.7764 424.728 85.7433C418.012 87.7428 412.889 92.754 411.555 98.985C406.192 101.318 402.189 105.669 400.911 110.944C394.755 113.949 390.551 119.665 390.601 126.292V126.374C388.386 128.493 387.02 131.303 387.045 134.403C387.045 135.805 387.391 137.119 387.907 138.352C386.579 140.722 385.761 143.35 385.786 146.173C385.856 155.529 394.277 163.037 404.776 163.458C406.884 167.57 411.586 170.443 417.049 170.406C420.857 170.381 424.269 168.947 426.686 166.683C430.229 169.481 434.887 171.217 440.023 171.192C445.184 171.167 449.829 169.362 453.348 166.501C456.734 168.796 460.926 170.211 465.54 170.186C472.268 170.148 478.172 167.161 481.728 162.628C483.428 163.037 485.19 163.32 487.034 163.307C495.248 163.257 502.253 158.843 505.237 152.58C515.282 151.662 523.112 144.243 523.043 135.176C523.043 135.107 523.018 135.032 523.018 134.963C528.645 131.85 532.396 126.374 532.346 120.092C532.321 117.452 531.59 114.962 530.369 112.723C531.553 110.46 532.264 107.976 532.239 105.317V105.291V105.298Z" fill="url(#paint4_linear_1724_4823)"/><path d="M391.684 195.04C390.161 195.04 388.593 194.776 387.014 194.242C380.046 191.884 373.878 184.471 371.303 175.354C370.907 173.964 371.725 172.518 373.11 172.122C374.545 171.751 375.948 172.543 376.345 173.927C378.428 181.334 383.401 187.502 388.7 189.287C391.01 190.08 393.213 189.96 395.058 188.986C397.311 187.816 399.054 185.395 399.98 182.189C400.389 180.799 401.811 180.013 403.227 180.409C404.618 180.818 405.418 182.264 405.009 183.654C403.681 188.25 401.012 191.79 397.475 193.632C395.668 194.575 393.717 195.04 391.678 195.04H391.684Z" fill="#CDCDD1"/><path d="M356.588 83.8571C356.191 83.8571 355.788 83.7879 355.392 83.6181C353.762 82.9579 352.987 81.1031 353.642 79.4809C372.644 32.7955 411.454 28.4885 413.09 28.3188C414.84 28.1364 416.395 29.4191 416.565 31.1671C416.735 32.915 415.463 34.468 413.713 34.6378C413.556 34.6504 404.385 35.669 393.201 41.9566C378.195 50.3882 366.872 63.8248 359.527 81.8576C359.024 83.09 357.84 83.8445 356.581 83.8445V83.8571H356.588Z" fill="#ECECF1"/><path d="M414.569 169.696C422.62 169.696 429.14 161.044 429.14 150.38C429.14 139.716 422.613 131.065 414.569 131.065C406.526 131.065 399.998 139.716 399.998 150.38C399.998 161.044 406.526 169.696 414.569 169.696Z" fill="#BE7EFF"/><path d="M366.879 154.863C374.929 154.863 381.45 146.211 381.45 135.548C381.45 124.884 374.923 116.232 366.879 116.232C358.835 116.232 352.308 124.884 352.308 135.548C352.308 146.211 358.835 154.863 366.879 154.863Z" fill="#BE7EFF"/><path d="M399.998 153.021C399.098 153.021 398.217 152.555 397.726 151.732C391.413 141.156 381.538 143.803 381.431 143.834C380.021 144.231 378.554 143.413 378.164 142.005C377.768 140.596 378.586 139.131 379.996 138.741C384.786 137.39 395.586 137.811 402.277 149.028C403.032 150.285 402.611 151.908 401.352 152.65C400.93 152.901 400.452 153.021 399.998 153.021Z" fill="black"/><path d="M366.879 157.516C357.381 157.516 349.658 147.657 349.658 135.541C349.658 123.425 357.381 113.566 366.879 113.566C376.377 113.566 384.099 123.425 384.099 135.541C384.099 147.657 376.377 157.516 366.879 157.516ZM366.879 118.866C360.308 118.866 354.951 126.342 354.951 135.541C354.951 144.74 360.301 152.216 366.879 152.216C373.456 152.216 378.806 144.74 378.806 135.541C378.806 126.342 373.456 118.866 366.879 118.866Z" fill="black"/><path d="M414.569 172.342C405.072 172.342 397.349 162.483 397.349 150.367C397.349 138.251 405.072 128.392 414.569 128.392C424.067 128.392 431.79 138.251 431.79 150.367C431.79 162.483 424.067 172.342 414.569 172.342ZM414.569 133.693C407.998 133.693 402.642 141.168 402.642 150.367C402.642 159.566 407.992 167.042 414.569 167.042C421.147 167.042 426.497 159.566 426.497 150.367C426.497 141.168 421.147 133.693 414.569 133.693Z" fill="black"/><path d="M438.468 255.427C419.403 254.748 398.702 250.824 376.276 237.438L376.912 219.833C394.095 231.207 418.365 237.765 439.079 238.507C463.935 239.406 483.541 232.144 503.777 217.827L503.141 235.507C480.268 251.641 460.756 255.181 438.468 255.433V255.427Z" fill="#13EE92"/><path d="M438.468 257.539H438.399C414.765 256.69 394.68 250.874 375.2 239.249C374.539 238.853 374.148 238.123 374.167 237.356L374.803 219.738C374.828 218.971 375.269 218.28 375.955 217.934C376.635 217.588 377.453 217.626 378.101 218.053C393.988 228.579 417.402 235.602 439.167 236.375C462.336 237.199 481.294 231.138 502.555 216.079C503.216 215.614 504.079 215.563 504.784 215.947C505.489 216.33 505.923 217.085 505.898 217.883L505.262 235.564C505.237 236.224 504.903 236.834 504.362 237.218C480.979 253.723 461.121 257.275 438.494 257.539H438.468ZM378.441 236.249C396.94 247.064 416.061 252.49 438.494 253.308C460.026 253.056 478.952 249.705 501.057 234.363L501.498 221.945C480.998 235.64 461.555 241.418 438.991 240.619C417.868 239.865 395.24 233.395 378.882 223.586L378.428 236.268L378.441 236.256V236.249Z" fill="#13EE92"/><path d="M498.093 233.326C498.2 230.402 496.519 227.969 494.348 227.887C492.176 227.811 490.326 230.119 490.219 233.043C490.112 235.966 491.792 238.4 493.964 238.482C496.135 238.557 497.986 236.249 498.093 233.326Z" fill="#2C2C33"/><path d="M388.361 233.483C388.468 230.559 386.919 228.126 384.899 228.057C382.885 227.981 381.166 230.295 381.059 233.219C380.952 236.143 382.501 238.576 384.521 238.645C386.535 238.721 388.254 236.407 388.361 233.483Z" fill="#2C2C33"/><path d="M437.436 252.207C440.363 252.207 442.742 249.837 442.742 246.907C442.742 243.977 440.369 241.606 437.436 241.606C434.503 241.606 432.13 243.977 432.13 246.907C432.13 249.837 434.503 252.207 437.436 252.207Z" fill="#2C2C33"/><path opacity="0.08" d="M439.74 10.8834C406.513 10.8834 376.754 25.7159 356.739 49.0994C372.531 38.3476 391.621 32.0537 412.178 32.0537C466.61 32.0537 510.75 76.1298 510.75 130.524C510.75 180.353 473.678 221.537 425.59 228.082C430.223 228.679 434.944 228.994 439.746 228.994C500.038 228.994 548.912 180.164 548.912 119.942C548.912 59.7191 500.025 10.8834 439.74 10.8834Z" fill="white"/><path d="M434.868 29.2936C433.345 29.2936 432.004 28.2059 431.74 26.6591C431.438 24.9363 432.59 23.289 434.327 22.9872C434.749 22.918 444.637 21.2141 451.472 22.6853C453.184 23.0563 454.286 24.7414 453.914 26.4516C453.543 28.1618 451.856 29.2622 450.144 28.8912C445.461 27.8852 437.933 28.8095 435.428 29.237C435.246 29.2747 435.057 29.2873 434.874 29.2873H434.862L434.868 29.2936Z" fill="#E0E0E4"/><path d="M420.826 200.593C413.569 200.593 405.462 199.542 396.518 196.952C394.68 196.418 393.629 194.5 394.158 192.664C394.693 190.828 396.612 189.772 398.45 190.306C418.088 196.003 435.617 194.588 450.553 186.093C461.744 179.73 467.252 171.531 467.308 171.45C468.359 169.859 470.506 169.419 472.098 170.469C473.691 171.519 474.137 173.65 473.093 175.247C472.841 175.631 466.805 184.71 454.298 191.922C446.632 196.342 435.454 200.593 420.826 200.593Z" fill="#A599E0"/><path d="M405.182 185.924L377.521 181.176C372.646 180.34 368.015 183.609 367.177 188.479L366.861 190.32C366.023 195.19 369.296 199.816 374.171 200.653L401.831 205.401C406.707 206.238 411.338 202.968 412.175 198.098L412.492 196.258C413.33 191.387 410.057 186.761 405.182 185.924Z" fill="#3A00D3"/><path d="M380.411 285.073H458.987C464.174 285.073 468.385 289.279 468.385 294.46V303.634H380.405V285.073H380.411Z" fill="#949498"/><path d="M399.155 303.634H267.89C263.78 303.634 259.57 299.056 258.537 293.46L243.293 210.697C242.261 205.101 244.785 200.523 248.895 200.523H380.153C384.263 200.523 388.474 205.101 389.506 210.697L404.757 293.46C405.789 299.056 403.265 303.634 399.155 303.634Z" fill="#BBBBBF"/><mask id="mask0_1724_4823" style="mask-type:luminance" maskUnits="userSpaceOnUse" x="307" y="241" width="25" height="26"><path d="M331.77 241.387H307.89V266.537H331.77V241.387Z" fill="white"/></mask><g mask="url(#mask0_1724_4823)"><mask id="mask1_1724_4823" style="mask-type:luminance" maskUnits="userSpaceOnUse" x="307" y="241" width="25" height="26"><path d="M331.77 241.387H307.89V266.537H331.77V241.387Z" fill="white"/></mask><g mask="url(#mask1_1724_4823)"><path d="M318.999 266.537H308.847C308.507 266.537 308.337 266.128 308.576 265.889L315.116 259.312C315.191 259.237 315.285 259.199 315.386 259.199H319.075C321.926 259.199 324.336 256.967 324.425 254.119C324.513 251.157 322.127 248.724 319.188 248.724H315.235V253.591C315.235 253.798 315.065 253.974 314.851 253.974H308.274C308.066 253.974 307.89 253.805 307.89 253.591V241.764C307.89 241.556 308.06 241.38 308.274 241.38H319.188C326.193 241.38 331.877 247.127 331.77 254.15C331.663 261.048 325.904 266.531 318.993 266.531" fill="white"/></g></g><path d="M509.435 114.641C509.435 114.641 524.308 61.2595 516.138 34.2543C507.962 7.24911 462.097 3.71548 446.991 11.2606H450.138C450.138 11.2606 499.931 17.4602 508.044 51.5012C511.191 64.7051 507.962 76.2869 500.283 106.97L509.429 114.641H509.435Z" fill="#A599E0"/><path d="M519.034 122.312C519.034 122.312 535.109 68.5406 525.737 41.9252C515.597 13.1469 482.238 -3.20084 443.214 10.6319V11.2606C443.214 11.2606 499.862 6.8593 512.494 42.4282C519.669 62.6365 516.302 83.9577 508.623 114.641L519.027 122.312H519.034Z" fill="#3A00D3"/><path d="M519.369 155.566C529.111 136.752 522.886 114.202 505.466 105.201C488.046 96.2003 466.027 104.156 456.285 122.97C446.543 141.785 452.767 164.334 470.188 173.335C487.608 182.336 509.627 174.381 519.369 155.566Z" fill="#3A00D3"/><path d="M518.508 155.063C526.9 138.855 522.463 119.907 508.596 112.742C494.73 105.577 476.686 112.909 468.293 129.117C459.901 145.325 464.338 164.273 478.205 171.438C492.071 178.603 510.115 171.271 518.508 155.063Z" fill="#A599E0"/><path d="M517.74 156.538C524.456 143.568 520.904 128.406 509.807 122.672C498.71 116.939 484.271 122.805 477.555 135.774C470.84 148.744 474.391 163.906 485.488 169.64C496.585 175.374 511.025 169.508 517.74 156.538Z" fill="#3A00D3"/><defs><linearGradient id="paint0_linear_1724_4823" x1="-5.48621" y1="626.671" x2="803.056" y2="505.923" gradientUnits="userSpaceOnUse"><stop offset="0.149178" stop-color="#D9248F" stop-opacity="0.7"/><stop offset="0.822917" stop-color="#AE29FF"/><stop offset="0.932292" stop-color="#AE29FF"/></linearGradient><radialGradient id="paint1_radial_1724_4823" cx="0" cy="0" r="1" gradientUnits="userSpaceOnUse" gradientTransform="translate(457 283.5) rotate(90) scale(17.5 94)"><stop stop-color="#101014"/><stop offset="1" stop-color="#101014" stop-opacity="0"/></radialGradient><linearGradient id="paint2_linear_1724_4823" x1="292.564" y1="138.352" x2="560.799" y2="104.713" gradientUnits="userSpaceOnUse"><stop offset="0.02" stop-color="#3A00D2"/><stop offset="1" stop-color="#13EE92"/></linearGradient><linearGradient id="paint3_linear_1724_4823" x1="363.001" y1="68.553" x2="488.597" y2="142.383" gradientUnits="userSpaceOnUse"><stop stop-color="#DC0070"/><stop offset="0.32" stop-color="#ED59A7"/><stop offset="0.57" stop-color="#F084BD"/></linearGradient><linearGradient id="paint4_linear_1724_4823" x1="340.626" y1="45.968" x2="505.757" y2="149.283" gradientUnits="userSpaceOnUse"><stop offset="0.29" stop-color="#ED028B"/><stop offset="0.93" stop-color="#F084BD"/></linearGradient><clipPath id="clip0_1724_4823"><rect width="821.92" height="198.027" fill="white" transform="translate(822.479 305.368) rotate(180)"/></clipPath></defs></svg>