<svg width="302" height="180" viewBox="0 0 302 180" fill="none" xmlns="http://www.w3.org/2000/svg">
<rect width="153" height="84" transform="translate(74.5 48)" fill="#0B0B0C"/>
<ellipse cx="103.464" cy="89.727" rx="7.63636" ry="17.1818" fill="url(#paint0_linear_1_473)"/>
<g filter="url(#filter0_d_1_473)">
<ellipse cx="117.646" cy="89.8634" rx="11.1818" ry="24.1364" fill="url(#paint1_linear_1_473)" shape-rendering="crispEdges"/>
</g>
<g filter="url(#filter1_d_1_473)">
<ellipse cx="134.964" cy="89.9999" rx="13.5" ry="30" fill="url(#paint2_linear_1_473)" shape-rendering="crispEdges"/>
</g>
<mask id="mask0_1_473" style="mask-type:alpha" maskUnits="userSpaceOnUse" x="121" y="59" width="28" height="61">
<ellipse cx="134.964" cy="89.9999" rx="13.5" ry="30" fill="url(#paint3_linear_1_473)"/>
</mask>
<g mask="url(#mask0_1_473)">
<g filter="url(#filter2_f_1_473)">
<ellipse cx="148.327" cy="90.7142" rx="11.7857" ry="26.4286" fill="#0B0B0C" fill-opacity="0.6"/>
</g>
</g>
<path d="M158.004 90.5399C158.302 90.2416 158.302 89.7581 158.004 89.4599L153.144 84.6002C152.846 84.3019 152.362 84.3019 152.064 84.6002C151.766 84.8984 151.766 85.3819 152.064 85.6801L156.384 89.9999L152.064 94.3197C151.766 94.6179 151.766 95.1014 152.064 95.3996C152.362 95.6978 152.846 95.6978 153.144 95.3996L158.004 90.5399ZM103.464 90.7635H157.464V89.2362H103.464V90.7635Z" fill="url(#paint4_linear_1_473)"/>
<rect width="39.0917" height="8.90255" transform="matrix(0.866025 -0.5 2.20305e-08 1 164.5 79.1925)" fill="url(#paint5_linear_1_473)"/>
<rect width="39.0917" height="8.90255" transform="matrix(0.866025 -0.5 2.20305e-08 1 164.5 99.9649)" fill="url(#paint6_linear_1_473)"/>
<rect width="39.0917" height="8.90255" transform="matrix(0.866025 -0.5 2.20305e-08 1 164.5 89.5788)" fill="url(#paint7_linear_1_473)"/>
<rect width="39.0917" height="8.90255" transform="matrix(0.866025 -0.5 2.20305e-08 1 164.5 110.352)" fill="url(#paint8_linear_1_473)"/>
<defs>
<filter id="filter0_d_1_473" x="99.2093" y="61.9089" width="30" height="55.9091" filterUnits="userSpaceOnUse" color-interpolation-filters="sRGB">
<feFlood flood-opacity="0" result="BackgroundImageFix"/>
<feColorMatrix in="SourceAlpha" type="matrix" values="0 0 0 0 0 0 0 0 0 0 0 0 0 0 0 0 0 0 127 0" result="hardAlpha"/>
<feOffset dx="-3.43636"/>
<feGaussianBlur stdDeviation="1.90909"/>
<feComposite in2="hardAlpha" operator="out"/>
<feColorMatrix type="matrix" values="0 0 0 0 0 0 0 0 0 0 0 0 0 0 0 0 0 0 0.3 0"/>
<feBlend mode="normal" in2="BackgroundImageFix" result="effect1_dropShadow_1_473"/>
<feBlend mode="normal" in="SourceGraphic" in2="effect1_dropShadow_1_473" result="shape"/>
</filter>
<filter id="filter1_d_1_473" x="116.118" y="56.9453" width="33.1091" height="66.1091" filterUnits="userSpaceOnUse" color-interpolation-filters="sRGB">
<feFlood flood-opacity="0" result="BackgroundImageFix"/>
<feColorMatrix in="SourceAlpha" type="matrix" values="0 0 0 0 0 0 0 0 0 0 0 0 0 0 0 0 0 0 127 0" result="hardAlpha"/>
<feOffset dx="-2.29091"/>
<feGaussianBlur stdDeviation="1.52727"/>
<feComposite in2="hardAlpha" operator="out"/>
<feColorMatrix type="matrix" values="0 0 0 0 0 0 0 0 0 0 0 0 0 0 0 0 0 0 0.25 0"/>
<feBlend mode="normal" in2="BackgroundImageFix" result="effect1_dropShadow_1_473"/>
<feBlend mode="normal" in="SourceGraphic" in2="effect1_dropShadow_1_473" result="shape"/>
</filter>
<filter id="filter2_f_1_473" x="106.542" y="34.2856" width="83.5714" height="112.857" filterUnits="userSpaceOnUse" color-interpolation-filters="sRGB">
<feFlood flood-opacity="0" result="BackgroundImageFix"/>
<feBlend mode="normal" in="SourceGraphic" in2="BackgroundImageFix" result="shape"/>
<feGaussianBlur stdDeviation="15" result="effect1_foregroundBlur_1_473"/>
</filter>
<linearGradient id="paint0_linear_1_473" x1="89.6932" y1="75.8242" x2="134.583" y2="77.7607" gradientUnits="userSpaceOnUse">
<stop offset="0.0767699" stop-color="#A1D7FD" stop-opacity="0.5"/>
<stop offset="0.875801" stop-color="#149AFB"/>
</linearGradient>
<linearGradient id="paint1_linear_1_473" x1="97.4817" y1="70.3333" x2="163.203" y2="73.2885" gradientUnits="userSpaceOnUse">
<stop offset="0.0767699" stop-color="#A1D7FD" stop-opacity="0.8"/>
<stop offset="0.875801" stop-color="#149AFB"/>
</linearGradient>
<linearGradient id="paint2_linear_1_473" x1="110.62" y1="65.7251" x2="189.975" y2="69.1911" gradientUnits="userSpaceOnUse">
<stop offset="0.0767699" stop-color="#A1D7FD" stop-opacity="0.8"/>
<stop offset="0.875801" stop-color="#149AFB"/>
</linearGradient>
<linearGradient id="paint3_linear_1_473" x1="110.62" y1="65.7251" x2="189.975" y2="69.1911" gradientUnits="userSpaceOnUse">
<stop offset="0.0767699" stop-color="#FFADD8" stop-opacity="0.8"/>
<stop offset="0.875801" stop-color="#EE028C"/>
</linearGradient>
<linearGradient id="paint4_linear_1_473" x1="100.327" y1="83.4999" x2="161.423" y2="83.6487" gradientUnits="userSpaceOnUse">
<stop offset="0.0767699" stop-color="#83C4F1" stop-opacity="0.05"/>
<stop offset="0.460198" stop-color="#75B5E3" stop-opacity="0.6"/>
<stop offset="1" stop-color="white"/>
</linearGradient>
<linearGradient id="paint5_linear_1_473" x1="-5.96314" y1="-3.33846" x2="1.78556" y2="30.9844" gradientUnits="userSpaceOnUse">
<stop offset="0.0767699" stop-color="#A1D7FD" stop-opacity="0.07"/>
<stop offset="0.875801" stop-color="#149AFB"/>
</linearGradient>
<linearGradient id="paint6_linear_1_473" x1="-5.96314" y1="-3.33846" x2="1.78556" y2="30.9844" gradientUnits="userSpaceOnUse">
<stop offset="0.0767699" stop-color="#A1D7FD" stop-opacity="0.07"/>
<stop offset="0.875801" stop-color="#149AFB"/>
</linearGradient>
<linearGradient id="paint7_linear_1_473" x1="-5.96314" y1="-3.33846" x2="1.78556" y2="30.9844" gradientUnits="userSpaceOnUse">
<stop offset="0.0767699" stop-color="#A1D7FD" stop-opacity="0.07"/>
<stop offset="0.875801" stop-color="#149AFB"/>
</linearGradient>
<linearGradient id="paint8_linear_1_473" x1="-5.96314" y1="-3.33846" x2="1.78556" y2="30.9844" gradientUnits="userSpaceOnUse">
<stop offset="0.0767699" stop-color="#A1D7FD" stop-opacity="0.07"/>
<stop offset="0.875801" stop-color="#149AFB"/>
</linearGradient>
</defs>
</svg>
