<svg class="card-icon" width="31" height="30" viewBox="0 0 31 30" fill="none" xmlns="http://www.w3.org/2000/svg"><path fill-rule="evenodd" clip-rule="evenodd" d="M18.377 10.1327C17.0072 10.1327 15.8936 11.2463 15.8936 12.6161V27.5166C15.8936 28.8863 17.0072 30 18.377 30H28.3106C29.6804 30 30.794 28.8863 30.794 27.5166V16.3412H25.8272C25.1404 16.3412 24.5855 15.7863 24.5855 15.0995V10.1327H18.377ZM25.8272 15.0995H30.794L25.8272 10.1327V15.0995ZM20.2441 20.0102V19.3707H22.8022V25.766H21.8429C21.4891 25.766 21.2034 26.0518 21.2034 26.4055C21.2034 26.7592 21.4891 27.045 21.8429 27.045H25.0405C25.3942 27.045 25.68 26.7592 25.68 26.4055C25.68 26.0518 25.3942 25.766 25.0405 25.766H24.0812V19.3707H26.6393V20.0102C26.6393 20.364 26.9251 20.6498 27.2788 20.6498C27.6326 20.6498 27.9184 20.364 27.9184 20.0102V19.051C27.9184 18.5214 27.4887 18.0917 26.9591 18.0917H23.4417H19.9243C19.3947 18.0917 18.965 18.5214 18.965 19.051V20.0102C18.965 20.364 19.2508 20.6498 19.6045 20.6498C19.9583 20.6498 20.2441 20.364 20.2441 20.0102Z" fill="url(#paint0_linear_2359_1612)"></path><path fill-rule="evenodd" clip-rule="evenodd" d="M19.1304 8.78347H18.3773C16.2624 8.78347 14.5447 10.5012 14.5447 12.6161V17.5014C13.1388 18.3376 11.4964 18.8179 9.74193 18.8179C4.54553 18.8179 0.333008 14.6053 0.333008 9.40893C0.333008 4.21252 4.54553 0 9.74193 0C14.7282 0 18.8085 3.87866 19.1304 8.78347ZM7.49829 5.79011V9.40893C7.49829 10.6077 8.47084 11.5802 9.66958 11.5802C10.8683 11.5802 11.8409 10.6077 11.8409 9.40893H10.0315C9.83242 9.40893 9.66958 9.24608 9.66958 9.04704C9.66958 8.84801 9.83242 8.68516 10.0315 8.68516H11.8409V7.9614H10.0315C9.83242 7.9614 9.66958 7.79855 9.66958 7.59952C9.66958 7.40048 9.83242 7.23764 10.0315 7.23764H11.8409V6.51387H10.0315C9.83242 6.51387 9.66958 6.35103 9.66958 6.15199C9.66958 5.95296 9.83242 5.79011 10.0315 5.79011H11.8409C11.8409 4.59138 10.8683 3.61882 9.66958 3.61882C8.47084 3.61882 7.49829 4.59138 7.49829 5.79011ZM12.5646 9.40893C12.5646 11.008 11.2686 12.304 9.66958 12.304C8.07051 12.304 6.77452 11.008 6.77452 9.40893V8.50422C6.77452 8.20341 6.53251 7.9614 6.2317 7.9614C5.93088 7.9614 5.68888 8.20341 5.68888 8.50422V9.40893C5.68888 11.4242 7.18616 13.0888 9.12675 13.3534V14.1134H8.04111C7.74029 14.1134 7.49829 14.3554 7.49829 14.6562C7.49829 14.957 7.74029 15.199 8.04111 15.199H11.298C11.5989 15.199 11.8409 14.957 11.8409 14.6562C11.8409 14.3554 11.5989 14.1134 11.298 14.1134H10.2124V13.3534C12.153 13.0888 13.6503 11.4242 13.6503 9.40893V8.50422C13.6503 8.20341 13.4083 7.9614 13.1075 7.9614C12.8066 7.9614 12.5646 8.20341 12.5646 8.50422V9.40893Z" fill="url(#paint1_linear_2359_1612)"></path><path d="M19.1234 10.1327C18.9294 12.6838 17.7179 14.9506 15.8939 16.5282V12.6161C15.8939 11.2463 17.0076 10.1327 18.3773 10.1327H19.1234Z" fill="url(#paint2_linear_2359_1612)"></path><defs><linearGradient id="paint0_linear_2359_1612" x1="14.2971" y1="32.173" x2="31.8972" y2="31.1332" gradientUnits="userSpaceOnUse"><stop offset="0.149178" stop-color="#EE028B"></stop><stop offset="1" stop-color="#AE29FF"></stop></linearGradient><linearGradient id="paint1_linear_2359_1612" x1="-1.681" y1="20.8761" x2="20.4625" y2="19.1336" gradientUnits="userSpaceOnUse"><stop offset="0.149178" stop-color="#EE028B"></stop><stop offset="1" stop-color="#AE29FF"></stop></linearGradient><linearGradient id="paint2_linear_2359_1612" x1="-1.681" y1="20.8761" x2="20.4625" y2="19.1336" gradientUnits="userSpaceOnUse"><stop offset="0.149178" stop-color="#EE028B"></stop><stop offset="1" stop-color="#AE29FF"></stop></linearGradient></defs></svg>